<mxfile host="app.diagrams.net" modified="2021-06-11T15:59:22.625Z" agent="5.0 (Windows NT 10.0; Win64; x64) AppleWebKit/537.36 (KHTML, like Gecko) Chrome/91.0.4472.77 Safari/537.36" etag="ft-alc918xzrcwTcN6Dr" version="14.6.1" type="github">
  <diagram id="kgpKYQtTHZ0yAKxKKP6v" name="Page-1">
    <mxGraphModel dx="1952" dy="620" grid="1" gridSize="10" guides="1" tooltips="1" connect="1" arrows="1" fold="1" page="1" pageScale="1" pageWidth="850" pageHeight="1100" math="0" shadow="0">
      <root>
        <mxCell id="0" />
        <mxCell id="1" parent="0" />
        <mxCell id="3nuBFxr9cyL0pnOWT2aG-1" value="Applicant" style="shape=umlLifeline;perimeter=lifelinePerimeter;container=1;collapsible=0;recursiveResize=0;rounded=0;shadow=0;strokeWidth=1;size=20;gradientColor=#7ea6e0;fillColor=#dae8fc;strokeColor=#6c8ebf;" parent="1" vertex="1">
          <mxGeometry x="20" y="80" width="100" height="550" as="geometry" />
        </mxCell>
        <mxCell id="3nuBFxr9cyL0pnOWT2aG-2" value="" style="points=[];perimeter=orthogonalPerimeter;rounded=0;shadow=0;strokeWidth=1;gradientColor=#7ea6e0;fillColor=#dae8fc;strokeColor=#6c8ebf;" parent="3nuBFxr9cyL0pnOWT2aG-1" vertex="1">
          <mxGeometry x="45" y="40" width="10" height="510" as="geometry" />
        </mxCell>
        <mxCell id="3nuBFxr9cyL0pnOWT2aG-3" value="" style="verticalAlign=bottom;startArrow=oval;endArrow=block;startSize=8;shadow=0;strokeWidth=1;gradientColor=#7ea6e0;fillColor=#dae8fc;strokeColor=#6c8ebf;" parent="3nuBFxr9cyL0pnOWT2aG-1" target="3nuBFxr9cyL0pnOWT2aG-1" edge="1">
          <mxGeometry x="0.1667" y="10" relative="1" as="geometry">
            <mxPoint x="-15" y="60" as="sourcePoint" />
            <Array as="points">
              <mxPoint x="10" y="90" />
            </Array>
            <mxPoint as="offset" />
          </mxGeometry>
        </mxCell>
        <mxCell id="3nuBFxr9cyL0pnOWT2aG-5" value="Evaluator" style="shape=umlLifeline;perimeter=lifelinePerimeter;container=1;collapsible=0;recursiveResize=0;rounded=0;shadow=0;strokeWidth=1;size=20;gradientColor=#7ea6e0;fillColor=#dae8fc;strokeColor=#6c8ebf;" parent="1" vertex="1">
          <mxGeometry x="190" y="80" width="220" height="550" as="geometry" />
        </mxCell>
        <mxCell id="X408Mn2ttRt8jRY1AywJ-10" value="&lt;font size=&quot;1&quot;&gt;Are Documents&lt;br&gt;Complete &amp;amp; Valid?&lt;br&gt;&lt;/font&gt;" style="rhombus;whiteSpace=wrap;html=1;gradientColor=#7ea6e0;fillColor=#dae8fc;strokeColor=#6c8ebf;" vertex="1" parent="3nuBFxr9cyL0pnOWT2aG-5">
          <mxGeometry x="120" y="44" width="110" height="90" as="geometry" />
        </mxCell>
        <mxCell id="X408Mn2ttRt8jRY1AywJ-8" value="" style="points=[];perimeter=orthogonalPerimeter;rounded=0;shadow=0;strokeWidth=1;gradientColor=#7ea6e0;fillColor=#dae8fc;strokeColor=#6c8ebf;" vertex="1" parent="3nuBFxr9cyL0pnOWT2aG-5">
          <mxGeometry x="90" y="180" width="10" height="230" as="geometry" />
        </mxCell>
        <mxCell id="X408Mn2ttRt8jRY1AywJ-11" value="Yes" style="text;html=1;strokeColor=#6c8ebf;fillColor=#dae8fc;align=center;verticalAlign=middle;whiteSpace=wrap;rounded=0;gradientColor=#7ea6e0;" vertex="1" parent="3nuBFxr9cyL0pnOWT2aG-5">
          <mxGeometry x="120" y="113" width="40" height="20" as="geometry" />
        </mxCell>
        <mxCell id="X408Mn2ttRt8jRY1AywJ-60" value="&lt;font style=&quot;font-size: 10px&quot;&gt;AKSHAT&lt;br&gt;KUMAR&lt;br&gt;20MIS0183&lt;/font&gt;" style="text;html=1;strokeColor=#6c8ebf;fillColor=#dae8fc;align=center;verticalAlign=middle;whiteSpace=wrap;rounded=0;labelBackgroundColor=none;gradientColor=#7ea6e0;opacity=30;" vertex="1" parent="3nuBFxr9cyL0pnOWT2aG-5">
          <mxGeometry x="155" y="220" width="65" height="50" as="geometry" />
        </mxCell>
        <mxCell id="3nuBFxr9cyL0pnOWT2aG-8" value=" Submit the Documents " style="verticalAlign=bottom;endArrow=block;shadow=0;strokeWidth=1;entryX=0;entryY=0.5;entryDx=0;entryDy=0;gradientColor=#7ea6e0;fillColor=#dae8fc;strokeColor=#6c8ebf;" parent="1" source="3nuBFxr9cyL0pnOWT2aG-2" target="X408Mn2ttRt8jRY1AywJ-10" edge="1">
          <mxGeometry relative="1" as="geometry">
            <mxPoint x="275" y="160" as="sourcePoint" />
            <mxPoint x="280" y="150.00000000000034" as="targetPoint" />
            <Array as="points">
              <mxPoint x="170" y="170" />
            </Array>
          </mxGeometry>
        </mxCell>
        <mxCell id="X408Mn2ttRt8jRY1AywJ-1" value="System" style="shape=umlLifeline;perimeter=lifelinePerimeter;container=1;collapsible=0;recursiveResize=0;rounded=0;shadow=0;strokeWidth=1;size=20;gradientColor=#7ea6e0;fillColor=#dae8fc;strokeColor=#6c8ebf;" vertex="1" parent="1">
          <mxGeometry x="430" y="80" width="130" height="550" as="geometry" />
        </mxCell>
        <mxCell id="X408Mn2ttRt8jRY1AywJ-4" value="" style="points=[];perimeter=orthogonalPerimeter;rounded=0;shadow=0;strokeWidth=1;gradientColor=#7ea6e0;fillColor=#dae8fc;strokeColor=#6c8ebf;" vertex="1" parent="X408Mn2ttRt8jRY1AywJ-1">
          <mxGeometry x="60" y="40" width="10" height="90" as="geometry" />
        </mxCell>
        <mxCell id="X408Mn2ttRt8jRY1AywJ-22" value="&lt;font face=&quot;helvetica&quot;&gt;&lt;span style=&quot;font-size: 10px;&quot;&gt;Administer Lecture for&lt;/span&gt;&lt;/font&gt;&lt;br style=&quot;color: rgb(0 , 0 , 0) ; font-family: &amp;quot;helvetica&amp;quot; ; font-size: 10px ; font-style: normal ; font-weight: 400 ; letter-spacing: normal ; text-align: center ; text-indent: 0px ; text-transform: none ; word-spacing: 0px&quot;&gt;&lt;span style=&quot;color: rgb(0, 0, 0); font-family: helvetica; font-size: 10px; font-style: normal; font-weight: 400; letter-spacing: normal; text-align: center; text-indent: 0px; text-transform: none; word-spacing: 0px; display: inline; float: none;&quot;&gt;of the Applicant&lt;/span&gt;" style="rounded=1;whiteSpace=wrap;html=1;gradientColor=#7ea6e0;fillColor=#dae8fc;strokeColor=#6c8ebf;labelBackgroundColor=none;" vertex="1" parent="X408Mn2ttRt8jRY1AywJ-1">
          <mxGeometry x="7.5" y="251" width="115" height="30" as="geometry" />
        </mxCell>
        <mxCell id="X408Mn2ttRt8jRY1AywJ-21" value="&lt;font size=&quot;1&quot;&gt;Get Signature of&lt;br&gt;the Applicant&lt;br&gt;&lt;/font&gt;" style="rounded=1;whiteSpace=wrap;html=1;gradientColor=#7ea6e0;fillColor=#dae8fc;strokeColor=#6c8ebf;" vertex="1" parent="X408Mn2ttRt8jRY1AywJ-1">
          <mxGeometry x="20" y="200" width="90" height="30" as="geometry" />
        </mxCell>
        <mxCell id="X408Mn2ttRt8jRY1AywJ-5" value="Cashier" style="shape=umlLifeline;perimeter=lifelinePerimeter;container=1;collapsible=0;recursiveResize=0;rounded=0;shadow=0;strokeWidth=1;size=20;gradientColor=#7ea6e0;fillColor=#dae8fc;strokeColor=#6c8ebf;" vertex="1" parent="1">
          <mxGeometry x="600" y="80" width="100" height="560" as="geometry" />
        </mxCell>
        <mxCell id="X408Mn2ttRt8jRY1AywJ-31" value="" style="points=[];perimeter=orthogonalPerimeter;rounded=0;shadow=0;strokeWidth=1;gradientColor=#7ea6e0;fillColor=#dae8fc;strokeColor=#6c8ebf;" vertex="1" parent="X408Mn2ttRt8jRY1AywJ-5">
          <mxGeometry x="45" y="40" width="10" height="140" as="geometry" />
        </mxCell>
        <mxCell id="X408Mn2ttRt8jRY1AywJ-28" value="&lt;font size=&quot;1&quot;&gt;Receive Payment&lt;br&gt;from the Applicant&lt;br&gt;&lt;/font&gt;" style="rounded=1;whiteSpace=wrap;html=1;gradientColor=#7ea6e0;fillColor=#dae8fc;strokeColor=#6c8ebf;" vertex="1" parent="X408Mn2ttRt8jRY1AywJ-5">
          <mxGeometry x="5" y="200" width="90" height="30" as="geometry" />
        </mxCell>
        <mxCell id="X408Mn2ttRt8jRY1AywJ-12" value="No" style="text;html=1;strokeColor=#6c8ebf;fillColor=#dae8fc;align=center;verticalAlign=middle;whiteSpace=wrap;rounded=0;gradientColor=#7ea6e0;" vertex="1" parent="1">
          <mxGeometry x="290" y="110" width="40" height="20" as="geometry" />
        </mxCell>
        <mxCell id="X408Mn2ttRt8jRY1AywJ-13" value="" style="endArrow=classic;html=1;gradientColor=#7ea6e0;fillColor=#dae8fc;strokeColor=#6c8ebf;" edge="1" parent="1">
          <mxGeometry width="50" height="50" relative="1" as="geometry">
            <mxPoint x="301" y="120" as="sourcePoint" />
            <mxPoint x="201" y="150" as="targetPoint" />
            <Array as="points">
              <mxPoint x="201" y="120" />
            </Array>
          </mxGeometry>
        </mxCell>
        <mxCell id="X408Mn2ttRt8jRY1AywJ-14" value="" style="endArrow=none;html=1;entryX=0.297;entryY=0.178;entryDx=0;entryDy=0;entryPerimeter=0;gradientColor=#7ea6e0;fillColor=#dae8fc;strokeColor=#6c8ebf;" edge="1" parent="1">
          <mxGeometry width="50" height="50" relative="1" as="geometry">
            <mxPoint x="319" y="123" as="sourcePoint" />
            <mxPoint x="341.6700000000001" y="143.01999999999998" as="targetPoint" />
          </mxGeometry>
        </mxCell>
        <mxCell id="X408Mn2ttRt8jRY1AywJ-15" value=" Fill out Driving License &#xa;Application Form" style="verticalAlign=bottom;endArrow=block;shadow=0;strokeWidth=1;gradientColor=#7ea6e0;fillColor=#dae8fc;strokeColor=#6c8ebf;" edge="1" parent="1">
          <mxGeometry x="-0.3699" relative="1" as="geometry">
            <mxPoint x="75" y="240.5" as="sourcePoint" />
            <mxPoint x="440" y="241" as="targetPoint" />
            <Array as="points" />
            <mxPoint as="offset" />
          </mxGeometry>
        </mxCell>
        <mxCell id="X408Mn2ttRt8jRY1AywJ-20" value="&#xa;&#xa;&lt;span style=&quot;color: rgb(0, 0, 0); font-family: helvetica; font-size: 10px; font-style: normal; font-weight: 400; letter-spacing: normal; text-align: center; text-indent: 0px; text-transform: none; word-spacing: 0px; display: inline; float: none;&quot;&gt;Take a picture&lt;/span&gt;&lt;br style=&quot;color: rgb(0, 0, 0); font-family: helvetica; font-size: 10px; font-style: normal; font-weight: 400; letter-spacing: normal; text-align: center; text-indent: 0px; text-transform: none; word-spacing: 0px;&quot;&gt;&lt;span style=&quot;color: rgb(0, 0, 0); font-family: helvetica; font-size: 10px; font-style: normal; font-weight: 400; letter-spacing: normal; text-align: center; text-indent: 0px; text-transform: none; word-spacing: 0px; display: inline; float: none;&quot;&gt;of the Applicant&lt;/span&gt;&#xa;&#xa;" style="rounded=1;whiteSpace=wrap;html=1;gradientColor=#7ea6e0;fillColor=#dae8fc;strokeColor=#6c8ebf;labelBackgroundColor=none;" vertex="1" parent="1">
          <mxGeometry x="450" y="225" width="90" height="30" as="geometry" />
        </mxCell>
        <mxCell id="X408Mn2ttRt8jRY1AywJ-24" value="&lt;font size=&quot;1&quot;&gt;Process Temporary&lt;br&gt;Driving License&lt;br&gt;&lt;/font&gt;" style="rounded=1;whiteSpace=wrap;html=1;gradientColor=#7ea6e0;fillColor=#dae8fc;strokeColor=#6c8ebf;" vertex="1" parent="1">
          <mxGeometry x="230" y="508" width="90" height="30" as="geometry" />
        </mxCell>
        <mxCell id="X408Mn2ttRt8jRY1AywJ-58" value="" style="edgeStyle=orthogonalEdgeStyle;rounded=0;orthogonalLoop=1;jettySize=auto;html=1;gradientColor=#7ea6e0;fillColor=#dae8fc;strokeColor=#6c8ebf;" edge="1" parent="1" source="X408Mn2ttRt8jRY1AywJ-25">
          <mxGeometry relative="1" as="geometry">
            <mxPoint x="651" y="670" as="targetPoint" />
          </mxGeometry>
        </mxCell>
        <mxCell id="X408Mn2ttRt8jRY1AywJ-25" value="&lt;font size=&quot;1&quot;&gt;Give TDL &amp;amp; OR&lt;br&gt;to applicant&lt;br&gt;&lt;/font&gt;" style="rounded=1;whiteSpace=wrap;html=1;gradientColor=#7ea6e0;fillColor=#dae8fc;strokeColor=#6c8ebf;" vertex="1" parent="1">
          <mxGeometry x="602.5" y="600" width="97.5" height="30" as="geometry" />
        </mxCell>
        <mxCell id="X408Mn2ttRt8jRY1AywJ-27" value="&lt;span style=&quot;font-size: x-small&quot;&gt;Receive another Payment&lt;/span&gt;&lt;br style=&quot;font-size: x-small&quot;&gt;&lt;span style=&quot;font-size: x-small&quot;&gt;from the Applicant&lt;/span&gt;" style="rounded=1;whiteSpace=wrap;html=1;gradientColor=#7ea6e0;fillColor=#dae8fc;strokeColor=#6c8ebf;" vertex="1" parent="1">
          <mxGeometry x="592.5" y="440" width="115" height="40" as="geometry" />
        </mxCell>
        <mxCell id="X408Mn2ttRt8jRY1AywJ-26" value="&lt;font size=&quot;1&quot;&gt;Process official&lt;br&gt;receipt ( OR )&lt;br&gt;&lt;/font&gt;" style="rounded=1;whiteSpace=wrap;html=1;gradientColor=#7ea6e0;fillColor=#dae8fc;strokeColor=#6c8ebf;" vertex="1" parent="1">
          <mxGeometry x="605" y="508" width="90" height="30" as="geometry" />
        </mxCell>
        <mxCell id="X408Mn2ttRt8jRY1AywJ-35" style="edgeStyle=orthogonalEdgeStyle;rounded=0;orthogonalLoop=1;jettySize=auto;html=1;exitX=0.5;exitY=1;exitDx=0;exitDy=0;gradientColor=#7ea6e0;fillColor=#dae8fc;strokeColor=#6c8ebf;" edge="1" parent="1" source="X408Mn2ttRt8jRY1AywJ-26" target="X408Mn2ttRt8jRY1AywJ-26">
          <mxGeometry relative="1" as="geometry" />
        </mxCell>
        <mxCell id="X408Mn2ttRt8jRY1AywJ-36" value="" style="endArrow=classic;html=1;exitX=0.5;exitY=1;exitDx=0;exitDy=0;gradientColor=#7ea6e0;fillColor=#dae8fc;strokeColor=#6c8ebf;" edge="1" parent="1" source="X408Mn2ttRt8jRY1AywJ-20" target="X408Mn2ttRt8jRY1AywJ-21">
          <mxGeometry width="50" height="50" relative="1" as="geometry">
            <mxPoint x="420" y="260" as="sourcePoint" />
            <mxPoint x="420" y="290" as="targetPoint" />
          </mxGeometry>
        </mxCell>
        <mxCell id="X408Mn2ttRt8jRY1AywJ-38" value="" style="endArrow=classic;html=1;exitX=0.5;exitY=1;exitDx=0;exitDy=0;gradientColor=#7ea6e0;fillColor=#dae8fc;strokeColor=#6c8ebf;" edge="1" parent="1">
          <mxGeometry width="50" height="50" relative="1" as="geometry">
            <mxPoint x="495" y="362" as="sourcePoint" />
            <mxPoint x="495" y="387" as="targetPoint" />
          </mxGeometry>
        </mxCell>
        <mxCell id="X408Mn2ttRt8jRY1AywJ-23" value="&lt;font size=&quot;1&quot;&gt;Administer Exam&lt;/font&gt;" style="rounded=1;whiteSpace=wrap;html=1;gradientColor=#7ea6e0;fillColor=#dae8fc;strokeColor=#6c8ebf;" vertex="1" parent="1">
          <mxGeometry x="451" y="386" width="85" height="25" as="geometry" />
        </mxCell>
        <mxCell id="X408Mn2ttRt8jRY1AywJ-39" value="" style="endArrow=classic;html=1;entryX=0;entryY=0.5;entryDx=0;entryDy=0;exitX=1;exitY=0.5;exitDx=0;exitDy=0;gradientColor=#7ea6e0;fillColor=#dae8fc;strokeColor=#6c8ebf;" edge="1" parent="1" source="X408Mn2ttRt8jRY1AywJ-21" target="X408Mn2ttRt8jRY1AywJ-28">
          <mxGeometry width="50" height="50" relative="1" as="geometry">
            <mxPoint x="350" y="470" as="sourcePoint" />
            <mxPoint x="400" y="470" as="targetPoint" />
            <Array as="points" />
          </mxGeometry>
        </mxCell>
        <mxCell id="X408Mn2ttRt8jRY1AywJ-40" value="" style="endArrow=classic;html=1;exitX=0.5;exitY=1;exitDx=0;exitDy=0;entryX=1;entryY=0.5;entryDx=0;entryDy=0;gradientColor=#7ea6e0;fillColor=#dae8fc;strokeColor=#6c8ebf;" edge="1" parent="1" source="X408Mn2ttRt8jRY1AywJ-28" target="X408Mn2ttRt8jRY1AywJ-22">
          <mxGeometry width="50" height="50" relative="1" as="geometry">
            <mxPoint x="350" y="470" as="sourcePoint" />
            <mxPoint x="400" y="420" as="targetPoint" />
            <Array as="points">
              <mxPoint x="650" y="346" />
            </Array>
          </mxGeometry>
        </mxCell>
        <mxCell id="X408Mn2ttRt8jRY1AywJ-41" value="" style="shape=link;html=1;gradientColor=#7ea6e0;fillColor=#dae8fc;strokeColor=#6c8ebf;" edge="1" parent="1">
          <mxGeometry width="100" relative="1" as="geometry">
            <mxPoint x="190" y="505" as="sourcePoint" />
            <mxPoint x="720" y="505" as="targetPoint" />
            <Array as="points">
              <mxPoint x="340" y="505" />
            </Array>
          </mxGeometry>
        </mxCell>
        <mxCell id="X408Mn2ttRt8jRY1AywJ-42" value="" style="shape=link;html=1;gradientColor=#7ea6e0;fillColor=#dae8fc;strokeColor=#6c8ebf;" edge="1" parent="1">
          <mxGeometry width="100" relative="1" as="geometry">
            <mxPoint x="190" y="561" as="sourcePoint" />
            <mxPoint x="720" y="561" as="targetPoint" />
          </mxGeometry>
        </mxCell>
        <mxCell id="X408Mn2ttRt8jRY1AywJ-43" value="&lt;font style=&quot;font-size: 10px&quot;&gt;Pass Exam&lt;/font&gt;" style="rhombus;whiteSpace=wrap;html=1;gradientColor=#7ea6e0;fillColor=#dae8fc;strokeColor=#6c8ebf;" vertex="1" parent="1">
          <mxGeometry x="465" y="435" width="60" height="50" as="geometry" />
        </mxCell>
        <mxCell id="X408Mn2ttRt8jRY1AywJ-45" value="" style="endArrow=classic;html=1;exitX=0.5;exitY=1;exitDx=0;exitDy=0;gradientColor=#7ea6e0;fillColor=#dae8fc;strokeColor=#6c8ebf;" edge="1" parent="1">
          <mxGeometry width="50" height="50" relative="1" as="geometry">
            <mxPoint x="495" y="411" as="sourcePoint" />
            <mxPoint x="495" y="436" as="targetPoint" />
          </mxGeometry>
        </mxCell>
        <mxCell id="X408Mn2ttRt8jRY1AywJ-46" value="No" style="text;html=1;strokeColor=#6c8ebf;fillColor=#dae8fc;align=center;verticalAlign=middle;whiteSpace=wrap;rounded=0;gradientColor=#7ea6e0;" vertex="1" parent="1">
          <mxGeometry x="496" y="410" width="40" height="20" as="geometry" />
        </mxCell>
        <mxCell id="X408Mn2ttRt8jRY1AywJ-47" value="Yes" style="text;html=1;strokeColor=#6c8ebf;fillColor=#dae8fc;align=center;verticalAlign=middle;whiteSpace=wrap;rounded=0;gradientColor=#7ea6e0;" vertex="1" parent="1">
          <mxGeometry x="536" y="440" width="40" height="20" as="geometry" />
        </mxCell>
        <mxCell id="X408Mn2ttRt8jRY1AywJ-48" value="" style="endArrow=classic;html=1;entryX=0;entryY=0.5;entryDx=0;entryDy=0;exitX=1;exitY=0.5;exitDx=0;exitDy=0;gradientColor=#7ea6e0;fillColor=#dae8fc;strokeColor=#6c8ebf;" edge="1" parent="1" source="X408Mn2ttRt8jRY1AywJ-43" target="X408Mn2ttRt8jRY1AywJ-27">
          <mxGeometry width="50" height="50" relative="1" as="geometry">
            <mxPoint x="350" y="510" as="sourcePoint" />
            <mxPoint x="400" y="460" as="targetPoint" />
          </mxGeometry>
        </mxCell>
        <mxCell id="X408Mn2ttRt8jRY1AywJ-50" value="" style="ellipse;html=1;shape=endState;fillColor=#dae8fc;strokeColor=#6c8ebf;gradientColor=#7ea6e0;" vertex="1" parent="1">
          <mxGeometry x="636.25" y="670" width="30" height="30" as="geometry" />
        </mxCell>
        <mxCell id="X408Mn2ttRt8jRY1AywJ-51" value="" style="endArrow=classic;html=1;exitX=0.5;exitY=1;exitDx=0;exitDy=0;gradientColor=#7ea6e0;fillColor=#dae8fc;strokeColor=#6c8ebf;" edge="1" parent="1" source="X408Mn2ttRt8jRY1AywJ-24">
          <mxGeometry width="50" height="50" relative="1" as="geometry">
            <mxPoint x="505" y="372" as="sourcePoint" />
            <mxPoint x="275" y="560" as="targetPoint" />
          </mxGeometry>
        </mxCell>
        <mxCell id="X408Mn2ttRt8jRY1AywJ-52" value="" style="endArrow=classic;html=1;exitX=0.5;exitY=1;exitDx=0;exitDy=0;gradientColor=#7ea6e0;fillColor=#dae8fc;strokeColor=#6c8ebf;" edge="1" parent="1" source="X408Mn2ttRt8jRY1AywJ-27">
          <mxGeometry width="50" height="50" relative="1" as="geometry">
            <mxPoint x="515" y="382" as="sourcePoint" />
            <mxPoint x="650" y="510" as="targetPoint" />
          </mxGeometry>
        </mxCell>
        <mxCell id="X408Mn2ttRt8jRY1AywJ-53" value="" style="endArrow=classic;html=1;gradientColor=#7ea6e0;fillColor=#dae8fc;strokeColor=#6c8ebf;" edge="1" parent="1">
          <mxGeometry width="50" height="50" relative="1" as="geometry">
            <mxPoint x="650" y="540" as="sourcePoint" />
            <mxPoint x="650" y="560" as="targetPoint" />
          </mxGeometry>
        </mxCell>
        <mxCell id="X408Mn2ttRt8jRY1AywJ-56" value="" style="endArrow=classic;html=1;entryX=0.5;entryY=0;entryDx=0;entryDy=0;gradientColor=#7ea6e0;fillColor=#dae8fc;strokeColor=#6c8ebf;" edge="1" parent="1" target="X408Mn2ttRt8jRY1AywJ-25">
          <mxGeometry width="50" height="50" relative="1" as="geometry">
            <mxPoint x="490" y="560" as="sourcePoint" />
            <mxPoint x="400" y="480" as="targetPoint" />
            <Array as="points">
              <mxPoint x="490" y="580" />
              <mxPoint x="570" y="580" />
              <mxPoint x="651" y="580" />
            </Array>
          </mxGeometry>
        </mxCell>
        <mxCell id="X408Mn2ttRt8jRY1AywJ-57" value="" style="endArrow=classic;html=1;entryX=0.5;entryY=0;entryDx=0;entryDy=0;gradientColor=#7ea6e0;fillColor=#dae8fc;strokeColor=#6c8ebf;" edge="1" parent="1" target="X408Mn2ttRt8jRY1AywJ-50">
          <mxGeometry width="50" height="50" relative="1" as="geometry">
            <mxPoint x="650" y="630" as="sourcePoint" />
            <mxPoint x="700" y="580" as="targetPoint" />
          </mxGeometry>
        </mxCell>
        <mxCell id="X408Mn2ttRt8jRY1AywJ-59" value="" style="endArrow=classic;html=1;entryX=1;entryY=0.5;entryDx=0;entryDy=0;gradientColor=#7ea6e0;fillColor=#dae8fc;strokeColor=#6c8ebf;" edge="1" parent="1" target="X408Mn2ttRt8jRY1AywJ-50">
          <mxGeometry width="50" height="50" relative="1" as="geometry">
            <mxPoint x="536" y="418.5" as="sourcePoint" />
            <mxPoint x="745" y="709" as="targetPoint" />
            <Array as="points">
              <mxPoint x="730" y="419" />
              <mxPoint x="730" y="685" />
            </Array>
          </mxGeometry>
        </mxCell>
      </root>
    </mxGraphModel>
  </diagram>
</mxfile>
